inDegrees=yes
name=ik_MT_01200627-000-000_orientations_updatedTime
DataType=double
version=3
OpenSimVersion=4.5-2024-07-10-f38669b70
endheader
time	pelvis_tilt	pelvis_list	pelvis_rotation	pelvis_tx	pelvis_ty	pelvis_tz	hip_flexion_r	hip_adduction_r	hip_rotation_r	knee_angle_r	knee_angle_r_beta	ankle_angle_r	subtalar_angle_r	mtp_angle_r	hip_flexion_l	hip_adduction_l	hip_rotation_l	knee_angle_l	knee_angle_l_beta	ankle_angle_l	subtalar_angle_l	mtp_angle_l	lumbar_extension	lumbar_bending	lumbar_rotation	arm_flex_r	arm_add_r	arm_rot_r	elbow_flex_r	pro_sup_r	wrist_flex_r	wrist_dev_r	arm_flex_l	arm_add_l	arm_rot_l	elbow_flex_l	pro_sup_l	wrist_flex_l	wrist_dev_l
1747398480.783803	4.049815017664335	-4.43446663778167	71.5491001266936	0	0.9399999999999999	0	44.9999996383246	-9.999999988573329	0	60.0001172704	1.047199597951193	-4.999999851047217	0	0	44.9999996383246	-9.999999988573329	0	60.0001172704	1.047199597951193	-4.999999851047217	0	0	-0.1701728242049843	0.0617902478465687	-0.001266481325464277	-0.7263032419645851	1.784083129077075	-0.2443048059678351	1.94489092500222	0.8910041526939367	0	0	0.9230262816361499	-1.821707332858571	-0.5669980739877425	0.3192602572858476	0.3029618505123355	0	0
1747398480.793803	3.46383294387025	-4.861836510707653	71.61764602517843	0	0.9399999999999999	0	44.9999996384395	-9.999999988573329	0	60.00011727478243	1.047199598027681	-4.999999851047217	0	0	44.9999996384395	-9.999999988573329	0	60.00011727478243	1.047199598027681	-4.999999851047217	0	0	-0.159697294169753	0.08821547276822969	-0.002188745407190573	-0.6438213341085288	1.644840904203162	-0.2454179651687103	2.19292795392186	0.8504758776681616	0	0	1.040812604607401	-1.674150925012257	-0.5556279613236482	0.4435260557119909	0.3141296418477785	0	0
1747398480.803803	2.853287018357288	-5.284212588589972	71.6760774416679	0	0.9399999999999999	0	44.99999963853336	-9.999999988573329	0	60.00011727836699	1.047199598090243	-4.999999851047217	0	0	44.99999963853336	-9.999999988573329	0	60.00011727836699	1.047199598090243	-4.999999851047217	0	0	-0.1595354593902208	0.1139999342932034	-0.008546423859691763	-0.5456141426963389	1.510611448752038	-0.2495478370960485	2.445717514716212	0.822447930897114	0	0	1.114043992600346	-1.540934809196705	-0.5528079835584667	0.641380757479532	0.3269519880431486	0	0
1747398480.813803	2.234683409188446	-5.704650810957987	71.7211902518255	0	0.9399999999999999	0	44.99999963860564	-9.999999988573329	0	60.0001172811347	1.047199598138549	-4.999999851047217	0	0	44.99999963860564	-9.999999988573329	0	60.0001172811347	1.047199598138549	-4.999999851047217	0	0	-0.1638952899160881	0.1362896302087283	-0.01528052807455044	-0.4447374181396056	1.384263090909998	-0.2582512002211018	2.699711279993978	0.7957269716155839	-2.155227684594804e-35	3.232841526892206e-35	1.177794159210219	-1.413231520680371	-0.5657635975731424	0.8843693780364092	0.3416830856109919	-2.694034605743505e-35	5.38806921148701e-36
1747398480.823803	1.601108290230363	-6.124737747348448	71.7470940291214	0	0.9399999999999999	0	44.9999996386805	-9.999999988573329	0	60.00011728400117	1.047199598188578	-4.999999851047217	0	0	44.9999996386805	-9.999999988573329	0	60.00011728400117	1.047199598188578	-4.999999851047217	0	0	-0.1592635210328811	0.1573319118836302	-0.01913625984953254	-0.3461458546249713	1.23108758800434	-0.2595257522590476	2.956180696040844	0.7705313094618036	0	0	1.20332396023604	-1.277322182460104	-0.5685038906778466	1.178342019060482	0.3491535098750309	0	0
1747398480.833803	0.9746925838343489	-6.524639078836207	71.76347437734492	0	0.9399999999999999	0	44.99999963875698	-9.999999988573329	0	60.00011728692785	1.047199598239658	-4.999999851047217	0	0	44.99999963875698	-9.999999988573329	0	60.00011728692785	1.047199598239658	-4.999999851047217	0	0	-0.1506176268265862	0.1835086985576775	-0.02043470808822699	-0.2547898079991733	1.074213458918196	-0.2603568763090692	3.204133807774146	0.7480091403531848	0	0	1.193301884676217	-1.140995684764483	-0.5729941954982022	1.506396428169887	0.3553149296530031	0	0
1747398480.843803	0.3417981059881042	-6.89004051960785	71.76397871028722	0	0.9399999999999999	0	44.99999963887037	-9.999999988573329	0	60.00011729125801	1.047199598315234	-4.999999851047217	0	0	44.99999963887037	-9.999999988573329	0	60.00011729125801	1.047199598315234	-4.999999851047217	0	0	-0.1192201252752295	0.2235181699498306	-0.01196041657235746	-0.1907366011983768	0.8842870921183684	-0.2573768915226982	3.44310825609747	0.7229317033353555	0	0	1.116785617150881	-0.9771450343171092	-0.5659948977387154	1.870278625692228	0.3594672647177289	0	0
1747398480.853803	-0.2877450290022908	-7.240323088298554	71.7609725969494	0	0.9399999999999999	0	44.99999963898406	-9.999999988573329	0	60.00011729559908	1.047199598391	-4.999999851047217	0	0	44.99999963898406	-9.999999988573329	0	60.00011729559908	1.047199598391	-4.999999851047217	0	0	-0.09167906155011363	0.2603215267350443	-0.007735690881488027	-0.1237353970459265	0.7115095168856383	-0.2623055943773737	3.673639573040849	0.7060143254588731	0	0	1.03932520615996	-0.8335924438989261	-0.5715388322507629	2.243698456081372	0.3659372002758892	0	0
